<svg width="20" height="26" viewBox="0 0 20 26" fill="none" xmlns="http://www.w3.org/2000/svg">
<path d="M10 17.8203C10.3051 17.8203 10.5609 17.7172 10.7673 17.511C10.9738 17.3045 11.077 17.0488 11.077 16.7436C11.077 16.4385 10.9738 16.1828 10.7673 15.9763C10.5609 15.7699 10.3051 15.6666 10 15.6666C9.69489 15.6666 9.43911 15.7699 9.23267 15.9763C9.02622 16.1828 8.923 16.4385 8.923 16.7436C8.923 17.0488 9.02622 17.3045 9.23267 17.511C9.43911 17.7172 9.69489 17.8203 10 17.8203ZM9 13.282H11V6.84631H9V13.282ZM10 25.641C7.11622 24.8545 4.72867 23.1571 2.83733 20.5486C0.945778 17.9402 0 15.024 0 11.8V4.12831L10 0.384644L20 4.12831V11.8C20 15.024 19.0542 17.9402 17.1627 20.5486C15.2713 23.1571 12.8838 24.8545 10 25.641ZM10 23.5333C12.3111 22.8 14.2222 21.3333 15.7333 19.1333C17.2444 16.9333 18 14.4889 18 11.8V5.49998L10 2.51264L2 5.49998V11.8C2 14.4889 2.75556 16.9333 4.26667 19.1333C5.77778 21.3333 7.68889 22.8 10 23.5333Z" fill="white"/>
</svg>
