<svg width="56" height="56" viewBox="0 0 56 56" fill="none" xmlns="http://www.w3.org/2000/svg">
<g filter="url(#filter0_d_446_3195)">
<rect x="4" width="48" height="48" rx="8" fill="#F5F5F5" shape-rendering="crispEdges"/>
<path d="M25.3333 14.0001L25.3334 13.24C25.4514 13.1479 25.5808 13.0692 25.7479 12.9967C26.1211 12.8348 26.78 12.6667 28.0001 12.6667C29.2201 12.6667 29.879 12.8348 30.2522 12.9967C30.4193 13.0692 30.5487 13.1479 30.6667 13.24V14H33.3333V12.1307L32.9624 11.7438C32.6391 11.4067 32.1567 10.9162 31.3136 10.5504C30.4982 10.1966 29.4466 10 28.0001 10C26.5535 10 25.5019 10.1966 24.6865 10.5504C23.8434 10.9162 23.361 11.4066 23.0377 11.7439L22.6668 12.1307L22.6667 13.9999L25.3333 14.0001Z" fill="#A7A0F8"/>
<path fill-rule="evenodd" clip-rule="evenodd" d="M23.6783 16.6667H32.3217C33.395 16.6666 34.2808 16.6666 35.0024 16.7256C35.7519 16.7868 36.4408 16.9182 37.088 17.248C38.0915 17.7593 38.9074 18.5752 39.4187 19.5787C39.7484 20.2258 39.8798 20.9148 39.9411 21.6642C40 22.3858 40 23.2716 40 24.3449V30.3218C40 31.395 40 32.2808 39.9411 33.0024C39.8798 33.7519 39.7484 34.4408 39.4187 35.0879C38.9074 36.0915 38.0915 36.9074 37.0879 37.4187C36.4408 37.7484 35.7519 37.8798 35.0024 37.9411C34.2809 38 33.3951 38 32.3219 38H23.6783C22.6051 38 21.7191 38 20.9976 37.9411C20.2481 37.8798 19.5592 37.7484 18.9121 37.4187C17.9085 36.9074 17.0926 36.0915 16.5813 35.0879C16.2516 34.4408 16.1202 33.7519 16.0589 33.0024C16 32.2809 16 31.395 16 30.3218V24.3449C16 23.2717 16 22.3858 16.0589 21.6642C16.1202 20.9148 16.2516 20.2258 16.5813 19.5787C17.0926 18.5752 17.9085 17.7593 18.9121 17.248C19.5592 16.9182 20.2481 16.7868 20.9976 16.7256C21.7192 16.6666 22.605 16.6666 23.6783 16.6667ZM28.0008 32.6667C26.413 32.6675 24.7912 32.26 23.2 31.0667L24.8 28.9333C25.8755 29.74 26.9181 30.0006 27.9993 30C29.0805 29.9994 30.1254 29.7393 31.2 28.9333L32.8 31.0667C31.208 32.2607 29.5839 32.6658 28.0008 32.6667ZM23.3333 23.3333C22.2288 23.3333 21.3333 24.2288 21.3333 25.3333C21.3333 26.4379 22.2288 27.3333 23.3333 27.3333C24.4379 27.3333 25.3333 26.4379 25.3333 25.3333C25.3333 24.2288 24.4379 23.3333 23.3333 23.3333ZM30.6667 25.3333C30.6667 24.2288 31.5621 23.3333 32.6667 23.3333C33.7712 23.3333 34.6667 24.2288 34.6667 25.3333C34.6667 26.4379 33.7712 27.3333 32.6667 27.3333C31.5621 27.3333 30.6667 26.4379 30.6667 25.3333Z" fill="#A7A0F8"/>
</g>
<defs>
<filter id="filter0_d_446_3195" x="0" y="0" width="56" height="56" filterUnits="userSpaceOnUse" color-interpolation-filters="sRGB">
<feFlood flood-opacity="0" result="BackgroundImageFix"/>
<feColorMatrix in="SourceAlpha" type="matrix" values="0 0 0 0 0 0 0 0 0 0 0 0 0 0 0 0 0 0 127 0" result="hardAlpha"/>
<feOffset dy="4"/>
<feGaussianBlur stdDeviation="2"/>
<feComposite in2="hardAlpha" operator="out"/>
<feColorMatrix type="matrix" values="0 0 0 0 0 0 0 0 0 0 0 0 0 0 0 0 0 0 0.04 0"/>
<feBlend mode="normal" in2="BackgroundImageFix" result="effect1_dropShadow_446_3195"/>
<feBlend mode="normal" in="SourceGraphic" in2="effect1_dropShadow_446_3195" result="shape"/>
</filter>
</defs>
</svg>
