<svg width="32" height="32" viewBox="0 0 32 32" fill="none" xmlns="http://www.w3.org/2000/svg">
<mask id="mask0_246_1226" style="mask-type:alpha" maskUnits="userSpaceOnUse" x="0" y="0" width="32" height="32">
<rect width="32" height="32" fill="#D9D9D9"/>
</mask>
<g mask="url(#mask0_246_1226)">
<path d="M16.0026 19.6153C16.3119 19.6153 16.5687 19.5132 16.7729 19.309C16.9774 19.1048 17.0796 18.8479 17.0796 18.5383C17.0796 18.229 16.9774 17.9722 16.7729 17.768C16.5687 17.5638 16.3119 17.4616 16.0026 17.4616C15.6933 17.4616 15.4365 17.5638 15.2323 17.768C15.0278 17.9722 14.9256 18.229 14.9256 18.5383C14.9256 18.8479 15.0278 19.1048 15.2323 19.309C15.4365 19.5132 15.6933 19.6153 16.0026 19.6153ZM15.0026 14.9743H17.0026V6.92298H15.0026V14.9743ZM3.33594 28.0513V5.74365C3.33594 5.07009 3.56927 4.49998 4.03594 4.03331C4.5026 3.56665 5.07272 3.33331 5.74627 3.33331H26.2589C26.9325 3.33331 27.5026 3.56665 27.9693 4.03331C28.4359 4.49998 28.6693 5.07009 28.6693 5.74365V20.923C28.6693 21.5965 28.4359 22.1666 27.9693 22.6333C27.5026 23.1 26.9325 23.3333 26.2589 23.3333H8.05394L3.33594 28.0513ZM7.2026 21.3333H26.2589C26.3616 21.3333 26.4556 21.2905 26.5409 21.205C26.6265 21.1196 26.6693 21.0256 26.6693 20.923V5.74365C26.6693 5.64098 26.6265 5.54698 26.5409 5.46165C26.4556 5.37609 26.3616 5.33331 26.2589 5.33331H5.74627C5.6436 5.33331 5.5496 5.37609 5.46427 5.46165C5.37872 5.54698 5.33594 5.64098 5.33594 5.74365V23.1796L7.2026 21.3333Z" fill="white"/>
</g>
</svg>
