<svg width="21" height="20" viewBox="0 0 21 20" fill="none" xmlns="http://www.w3.org/2000/svg">
<mask id="mask0_2016_652" style="mask-type:alpha" maskUnits="userSpaceOnUse" x="0" y="0" width="21" height="20">
<rect x="0.5" width="20" height="20" fill="#D9D9D9"/>
</mask>
<g mask="url(#mask0_2016_652)">
<path d="M4.76427 17.0832C4.34997 17.0832 3.99531 16.9357 3.70031 16.6407C3.40531 16.3457 3.25781 15.991 3.25781 15.5767V4.42294C3.25781 4.00864 3.40531 3.65399 3.70031 3.35899C3.99531 3.06399 4.34997 2.91649 4.76427 2.91649H12.0078V4.16649H4.76427C4.68941 4.16649 4.62795 4.19051 4.5799 4.23857C4.53184 4.28663 4.50781 4.34808 4.50781 4.42294V15.5767C4.50781 15.6516 4.53184 15.713 4.5799 15.7611C4.62795 15.8091 4.68941 15.8332 4.76427 15.8332H15.918C15.9927 15.8332 16.0542 15.8091 16.1024 15.7611C16.1505 15.713 16.1745 15.6516 16.1745 15.5767V8.33315H17.4245V15.5767C17.4245 15.991 17.277 16.3457 16.982 16.6407C16.687 16.9357 16.3323 17.0832 15.918 17.0832H4.76427ZM14.8282 7.17919V5.51253H13.1616V4.26274H14.8282V2.59607H16.0782V4.26274H17.7449V5.51253H16.0782V7.17919H14.8282ZM5.96615 13.9582H14.7801L12.0397 10.3044L9.7001 13.3492L8.03344 11.2177L5.96615 13.9582Z" fill="white"/>
</g>
</svg>
