<svg width="21" height="20" viewBox="0 0 21 20" fill="none" xmlns="http://www.w3.org/2000/svg">
<mask id="mask0_2016_656" style="mask-type:alpha" maskUnits="userSpaceOnUse" x="0" y="0" width="21" height="20">
<rect x="0.5" width="20" height="20" fill="#D9D9D9"/>
</mask>
<g mask="url(#mask0_2016_656)">
<path d="M10.4974 11.6691C9.80295 11.6691 9.21267 11.426 8.72656 10.9399C8.24045 10.4538 7.9974 9.86351 7.9974 9.16907V4.16907C7.9974 3.47462 8.24045 2.88435 8.72656 2.39823C9.21267 1.91212 9.80295 1.66907 10.4974 1.66907C11.1918 1.66907 11.7821 1.91212 12.2682 2.39823C12.7543 2.88435 12.9974 3.47462 12.9974 4.16907V9.16907C12.9974 9.86351 12.7543 10.4538 12.2682 10.9399C11.7821 11.426 11.1918 11.6691 10.4974 11.6691ZM9.66406 17.5024V14.9399C8.21962 14.7455 7.02517 14.0996 6.08073 13.0024C5.13628 11.9052 4.66406 10.6274 4.66406 9.16907H6.33073C6.33073 10.3218 6.73698 11.3045 7.54948 12.117C8.36198 12.9295 9.34462 13.3357 10.4974 13.3357C11.6502 13.3357 12.6328 12.9295 13.4453 12.117C14.2578 11.3045 14.6641 10.3218 14.6641 9.16907H16.3307C16.3307 10.6274 15.8585 11.9052 14.9141 13.0024C13.9696 14.0996 12.7752 14.7455 11.3307 14.9399V17.5024H9.66406ZM10.4974 10.0024C10.7335 10.0024 10.9314 9.92254 11.0911 9.76282C11.2509 9.6031 11.3307 9.40518 11.3307 9.16907V4.16907C11.3307 3.93296 11.2509 3.73504 11.0911 3.57532C10.9314 3.4156 10.7335 3.33573 10.4974 3.33573C10.2613 3.33573 10.0634 3.4156 9.90365 3.57532C9.74392 3.73504 9.66406 3.93296 9.66406 4.16907V9.16907C9.66406 9.40518 9.74392 9.6031 9.90365 9.76282C10.0634 9.92254 10.2613 10.0024 10.4974 10.0024Z" fill="white"/>
</g>
</svg>
