<svg width="24" height="28" viewBox="0 0 24 28" fill="none" xmlns="http://www.w3.org/2000/svg">
<path d="M9.33333 4.00008L9.33338 3.23999C9.4514 3.1479 9.58082 3.06922 9.74793 2.99671C10.1211 2.83481 10.78 2.66667 12.0001 2.66667C13.2201 2.66667 13.879 2.83482 14.2522 2.99672C14.4193 3.06923 14.5487 3.14789 14.6667 3.23998V4H17.3333V2.13069L16.9624 1.74383C16.6391 1.40667 16.1567 0.916238 15.3136 0.55041C14.4982 0.196605 13.4466 0 12.0001 0C10.5535 0 9.50195 0.19659 8.68652 0.550385C7.84338 0.916206 7.36104 1.40664 7.03768 1.74386L6.66678 2.13068L6.66667 3.99992L9.33333 4.00008Z" fill="#FAFAFA"/>
<path fill-rule="evenodd" clip-rule="evenodd" d="M7.67827 6.66666H16.3217C17.395 6.66665 18.2808 6.66664 19.0024 6.72559C19.7519 6.78683 20.4408 6.91824 21.0879 7.24796C22.0915 7.75929 22.9074 8.57518 23.4187 9.57872C23.7484 10.2258 23.8798 10.9148 23.9411 11.6642C24 12.3858 24 13.2716 24 14.3449V20.3218C24 21.395 24 22.2808 23.9411 23.0024C23.8798 23.7519 23.7484 24.4408 23.4187 25.0879C22.9074 26.0915 22.0915 26.9074 21.0879 27.4187C20.4408 27.7484 19.7519 27.8798 19.0024 27.9411C18.2809 28 17.3951 28 16.3219 28H7.6783C6.6051 28 5.71912 28 4.99757 27.9411C4.2481 27.8798 3.55917 27.7484 2.91205 27.4187C1.90852 26.9074 1.09263 26.0915 0.581301 25.0879C0.25158 24.4408 0.120161 23.7519 0.0589271 23.0024C-2.85618e-05 22.2809 -1.54125e-05 21.395 5.21619e-07 20.3218V14.3449C-1.54125e-05 13.2717 -2.85618e-05 12.3858 0.0589271 11.6642C0.120161 10.9148 0.25158 10.2258 0.581301 9.57872C1.09263 8.57519 1.90852 7.75929 2.91205 7.24796C3.55917 6.91824 4.24811 6.78683 4.99757 6.72559C5.71916 6.66664 6.60499 6.66665 7.67827 6.66666ZM12.0008 22.6667C10.413 22.6675 8.7912 22.26 7.20003 21.0667L8.80003 18.9333C9.87554 19.74 10.9181 20.0006 11.9993 20C13.0805 19.9994 14.1254 19.7393 15.2 18.9333L16.8 21.0667C15.208 22.2607 13.5839 22.6658 12.0008 22.6667ZM7.33333 13.3333C6.22876 13.3333 5.33333 14.2288 5.33333 15.3333C5.33333 16.4379 6.22876 17.3333 7.33333 17.3333C8.4379 17.3333 9.33333 16.4379 9.33333 15.3333C9.33333 14.2288 8.4379 13.3333 7.33333 13.3333ZM14.6667 15.3333C14.6667 14.2288 15.5621 13.3333 16.6667 13.3333C17.7712 13.3333 18.6667 14.2288 18.6667 15.3333C18.6667 16.4379 17.7712 17.3333 16.6667 17.3333C15.5621 17.3333 14.6667 16.4379 14.6667 15.3333Z" fill="#FAFAFA"/>
</svg>
