<svg width="48" height="48" viewBox="0 0 48 48" fill="none" xmlns="http://www.w3.org/2000/svg">
<g clip-path="url(#clip0_2028_296)">
<rect width="48" height="48" rx="10" fill="#FAFAFA"/>
<path fill-rule="evenodd" clip-rule="evenodd" d="M16.6583 23.7615L18.8777 16.9742H21.7485L23.9679 23.7615L30.6263 26.0239V28.9503L23.9679 31.2127L21.7485 38H18.8777L16.6583 31.2127L10 28.9503V26.0239L16.6583 23.7615ZM20.3131 22.3392L19.2898 25.4686L18.3329 26.444L15.2631 27.4871L18.3329 28.5302L19.2898 29.5057L20.3131 32.635L21.3364 29.5057L22.2933 28.5302L25.3632 27.4871L22.2933 26.444L21.3364 25.4686L20.3131 22.3392Z" fill="#7468FC"/>
<path fill-rule="evenodd" clip-rule="evenodd" d="M30.3757 14.6097L31.5561 11H33.2786L34.4589 14.6097L38 15.8129V17.5687L34.4589 18.7719L33.2786 22.3816H31.5561L30.3757 18.7719L26.8347 17.5687V15.8129L30.3757 14.6097Z" fill="#7468FC"/>
</g>
<defs>
<clipPath id="clip0_2028_296">
<rect width="48" height="48" rx="10" fill="white"/>
</clipPath>
</defs>
</svg>
