<svg width="24" height="28" viewBox="0 0 24 28" fill="none" xmlns="http://www.w3.org/2000/svg">
<path d="M16.3213 6.66699C17.3943 6.66698 18.2805 6.66667 19.002 6.72559C19.7514 6.78682 20.4408 6.91833 21.0879 7.24805C22.0914 7.75937 22.9076 8.57557 23.4189 9.5791C23.7485 10.2261 23.8802 10.9148 23.9414 11.6641C24.0004 12.3856 24 13.2715 24 14.3447V20.3213C24 21.3943 24.0003 22.2805 23.9414 23.002C23.8802 23.7514 23.7486 24.4408 23.4189 25.0879C22.9076 26.0914 22.0914 26.9076 21.0879 27.4189C20.4408 27.7486 19.7514 27.8802 19.002 27.9414C18.2806 28.0003 17.3951 28 16.3223 28H7.67871C6.60576 28 5.7195 28.0003 4.99805 27.9414C4.24864 27.8802 3.55918 27.7486 2.91211 27.4189C1.90858 26.9076 1.09238 26.0914 0.581055 25.0879C0.251388 24.4408 0.119823 23.7514 0.0585938 23.002C-0.000320451 22.2805 -1.59304e-05 21.3943 0 20.3213V14.3447C-1.59325e-05 13.2715 -0.000358066 12.3856 0.0585938 11.6641C0.11982 10.9148 0.251506 10.2261 0.581055 9.5791C1.09238 8.57557 1.90858 7.75937 2.91211 7.24805C3.55922 6.91833 4.24859 6.78682 4.99805 6.72559C5.71955 6.66667 6.60566 6.66698 7.67871 6.66699H16.3213ZM15.2002 18.9336C14.1256 19.7395 13.0802 19.9994 11.999 20C10.9179 20.0005 9.87521 19.7401 8.7998 18.9336L7.2002 21.0664C8.79136 22.2598 10.4132 22.6679 12.001 22.667C13.5841 22.6661 15.2078 22.2604 16.7998 21.0664L15.2002 18.9336ZM7.33301 13.333C6.2287 13.3332 5.33318 14.2287 5.33301 15.333C5.33301 16.4375 6.22859 17.3328 7.33301 17.333C8.43758 17.333 9.33301 16.4376 9.33301 15.333C9.33283 14.2286 8.43747 13.333 7.33301 13.333ZM16.667 13.333C15.5625 13.333 14.6672 14.2286 14.667 15.333C14.667 16.4376 15.5624 17.333 16.667 17.333C17.7714 17.3328 18.667 16.4375 18.667 15.333C18.6668 14.2287 17.7713 13.3332 16.667 13.333ZM12 0C13.4466 0 14.4981 0.196976 15.3135 0.550781C16.1565 0.916583 16.6386 1.40698 16.9619 1.74414L17.333 2.13086V4H14.667V3.24023C14.549 3.14815 14.419 3.06957 14.252 2.99707C13.8788 2.83517 13.22 2.66699 12 2.66699C10.78 2.667 10.1212 2.83517 9.74805 2.99707C9.58095 3.06957 9.45102 3.14814 9.33301 3.24023V4H6.66699V2.13086L7.03809 1.74414C7.36142 1.40693 7.84352 0.916575 8.68652 0.550781C9.50194 0.196991 10.5535 5.7186e-06 12 0Z" fill="#A7A0F8"/>
</svg>
