<svg width="24" height="24" viewBox="0 0 24 24" fill="none" xmlns="http://www.w3.org/2000/svg">
<path d="M0.00179983 7.02934C0.00149983 10.9117 3.14722 14.0575 7.02943 14.0587C10.9137 14.0575 14.0583 10.912 14.0583 7.02934C14.0583 3.14639 10.9122 -0.00034518 7.02943 0.000854835L0 0.0014548L0.00179983 7.02934Z" fill="#A7C957"/>
<path d="M23.9934 16.9705C23.9943 13.0888 20.8479 9.94116 16.9672 9.94116C13.0826 9.94116 9.9375 13.0894 9.9375 16.9714C9.9375 20.8526 13.0844 23.9999 16.9672 23.999H23.9964L23.9934 16.9705Z" fill="#A7C957"/>
<path d="M19.9998 7.9999C22.2088 7.9999 23.9996 6.20906 23.9996 3.99995C23.9996 1.79084 22.2088 0 19.9998 0C17.7908 0 16 1.79084 16 3.99995C16 6.20906 17.7908 7.9999 19.9998 7.9999Z" fill="#A7C957"/>
<path d="M6.99973 20.4998C6.99973 22.4325 5.43167 24 3.49882 24C1.56626 24 0 22.4325 0 20.4998C0 18.5675 1.56626 17 3.49912 17C5.43197 17 6.99973 18.5675 6.99973 20.4998Z" fill="#A7C957"/>
</svg>
