<svg width="24" height="24" viewBox="0 0 24 24" fill="none" xmlns="http://www.w3.org/2000/svg">
<path d="M3.99985 8.0001C1.79158 8.0001 0 6.2091 0 3.9999C0 1.7907 1.79158 0 3.99985 0C6.20872 0 7.9997 1.791 7.9997 3.9999C7.9997 6.2088 9.79098 8.0001 11.9999 8.0001C14.2087 8.0001 15.9997 6.2091 15.9997 4.0002C15.9997 1.7913 17.791 0 19.9999 0C22.2087 0 23.9997 1.791 23.9997 3.9999C23.9997 6.2088 22.2087 7.9998 19.9999 7.9998C13.3717 7.9998 8 13.374 8 19.9998C8 22.2075 6.20902 23.9997 4.00015 23.9997C1.79128 23.9997 0 22.209 0 20.0001C0 17.7912 1.79098 15.9999 3.99985 15.9999C6.20872 15.9999 7.9994 14.2089 7.9994 12C7.9994 9.7911 6.20902 8.0001 3.99985 8.0001Z" fill="#FCF6BD"/>
<path d="M11 17.4999C11 13.908 13.9094 10.9998 17.5 10.9998C21.0907 11.0001 23.9997 13.908 23.9997 17.4999C23.9997 21.09 21.0907 24 17.4997 24C13.9091 24 11 21.09 11 17.4999Z" fill="#FCF6BD"/>
</svg>
