<svg width="24" height="24" viewBox="0 0 24 24" fill="none" xmlns="http://www.w3.org/2000/svg">
<path d="M7.49991 16.6497C7.49991 14.0736 8.5604 11.7417 10.2656 10.0629C9.34669 9.6411 8.3282 9.3999 7.25001 9.3999C3.24596 9.3999 0 12.6459 0 16.6497C0 20.6538 3.24596 23.8997 7.25001 23.8997C8.3282 23.8997 9.34639 23.6585 10.2656 23.2367C8.5604 21.558 7.49991 19.2261 7.49991 16.6497Z" fill="#FFB4A2"/>
<path d="M16.7497 16.5C14.1736 16.5 11.8418 15.4395 10.163 13.7334C9.7412 14.6532 9.5 15.6717 9.5 16.7499C9.5 20.754 12.746 24 16.7497 24C20.7538 24 23.9997 20.754 23.9997 16.7499C23.9997 15.6717 23.7585 14.6535 23.3367 13.7334C21.658 15.4395 19.3261 16.5 16.7497 16.5Z" fill="#FFB4A2"/>
<path d="M16.6102 0C15.532 0 14.5138 0.241199 13.5938 0.662997C15.2998 2.34179 16.3603 4.67368 16.3603 7.25007C16.3603 9.82616 15.2998 12.1581 13.5938 13.8368C14.5135 14.2586 15.532 14.4998 16.6102 14.4998C20.6143 14.4998 23.8602 11.2539 23.8602 7.25007C23.8602 3.24599 20.6143 0 16.6102 0Z" fill="#FFB4A2"/>
<path d="M7.25001 7.49997C9.82608 7.49997 12.158 8.56047 13.8367 10.2657C14.2585 9.34676 14.4997 8.32827 14.4997 7.25007C14.4997 3.24599 11.2538 0 7.25001 0C3.24596 0 0 3.24599 0 7.25007C0 8.32827 0.241197 9.34646 0.662992 10.2657C2.34177 8.56047 4.67364 7.49997 7.25001 7.49997Z" fill="#FFB4A2"/>
</svg>
