<svg width="24" height="24" viewBox="0 0 24 24" fill="none" xmlns="http://www.w3.org/2000/svg">
<path d="M17.394 6.61061C18.6063 7.82169 19.7274 9.07296 20.7346 10.3278C23.7055 6.03343 24.8614 2.21632 23.3239 0.680352C21.7864 -0.857112 17.9682 0.299361 13.6719 3.27229C14.9211 4.27247 16.173 5.38874 17.394 6.61061Z" fill="#CAF0F8"/>
<path d="M6.61117 17.3907C5.39886 16.1793 4.27684 14.9283 3.26853 13.6722C0.298198 17.9663 -0.857115 21.7835 0.680403 23.3197C2.21762 24.8572 6.03666 23.7007 10.3324 20.7278C9.0832 19.7276 7.83188 18.6125 6.61117 17.3907Z" fill="#CAF0F8"/>
<path d="M19.4936 12C18.4634 10.6806 17.2882 9.34022 15.9727 8.02475C14.6569 6.70808 13.3162 5.5333 11.9974 4.50403C10.6768 5.5333 9.33666 6.70838 8.02024 8.02475C6.70533 9.34022 5.52961 10.6806 4.5 12C5.53051 13.3193 6.70563 14.6603 8.02204 15.9761C9.33666 17.2918 10.678 18.4669 11.9974 19.4959C13.3162 18.4666 14.6557 17.2915 15.9715 15.9761C17.2885 14.6603 18.4637 13.3193 19.4936 12Z" fill="#CAF0F8"/>
<path d="M6.60924 6.61061C7.83115 5.38874 9.08337 4.27246 10.3326 3.27199C6.03563 0.299056 2.21689 -0.857418 0.680573 0.680047C-0.856945 2.21631 0.297469 6.03312 3.2687 10.3275C4.27701 9.07295 5.39843 7.82168 6.60924 6.61061Z" fill="#CAF0F8"/>
<path d="M17.3931 17.3906C16.1721 18.6125 14.9211 19.7275 13.6719 20.728C17.9673 23.7007 21.7864 24.8574 23.3239 23.32C24.8614 21.7828 23.7055 17.9666 20.7346 13.6725C19.7262 14.9283 18.6054 16.1792 17.3931 17.3906Z" fill="#CAF0F8"/>
</svg>
